<svg width="25" height="24" viewBox="0 0 25 24" fill="none" xmlns="http://www.w3.org/2000/svg">
<g id="page_info">
<mask id="mask0_10_3731" style="mask-type:alpha" maskUnits="userSpaceOnUse" x="0" y="0" width="25" height="24">
<rect id="Bounding box" x="0.25" width="24" height="24" fill="#D9D9D9"/>
</mask>
<g mask="url(#mask0_10_3731)">
<path id="page_info_2" d="M18 20.25C16.95 20.25 16.0625 19.8875 15.3375 19.1625C14.6125 18.4375 14.25 17.55 14.25 16.5C14.25 15.45 14.6125 14.5625 15.3375 13.8375C16.0625 13.1125 16.95 12.75 18 12.75C19.05 12.75 19.9375 13.1125 20.6625 13.8375C21.3875 14.5625 21.75 15.45 21.75 16.5C21.75 17.55 21.3875 18.4375 20.6625 19.1625C19.9375 19.8875 19.05 20.25 18 20.25ZM18 18.25C18.4833 18.25 18.8958 18.0792 19.2375 17.7375C19.5792 17.3958 19.75 16.9833 19.75 16.5C19.75 16.0167 19.5792 15.6042 19.2375 15.2625C18.8958 14.9208 18.4833 14.75 18 14.75C17.5167 14.75 17.1042 14.9208 16.7625 15.2625C16.4208 15.6042 16.25 16.0167 16.25 16.5C16.25 16.9833 16.4208 17.3958 16.7625 17.7375C17.1042 18.0792 17.5167 18.25 18 18.25ZM4.25 17.5V15.5H12.25V17.5H4.25ZM6.5 11.25C5.45 11.25 4.5625 10.8875 3.8375 10.1625C3.1125 9.4375 2.75 8.55 2.75 7.5C2.75 6.45 3.1125 5.5625 3.8375 4.8375C4.5625 4.1125 5.45 3.75 6.5 3.75C7.55 3.75 8.4375 4.1125 9.1625 4.8375C9.8875 5.5625 10.25 6.45 10.25 7.5C10.25 8.55 9.8875 9.4375 9.1625 10.1625C8.4375 10.8875 7.55 11.25 6.5 11.25ZM6.5 9.25C6.98333 9.25 7.39583 9.07917 7.7375 8.7375C8.07917 8.39583 8.25 7.98333 8.25 7.5C8.25 7.01667 8.07917 6.60417 7.7375 6.2625C7.39583 5.92083 6.98333 5.75 6.5 5.75C6.01667 5.75 5.60417 5.92083 5.2625 6.2625C4.92083 6.60417 4.75 7.01667 4.75 7.5C4.75 7.98333 4.92083 8.39583 5.2625 8.7375C5.60417 9.07917 6.01667 9.25 6.5 9.25ZM12.25 8.5V6.5H20.25V8.5H12.25Z" fill="black" fill-opacity="0.85"/>
</g>
</g>
</svg>
