<svg width="30" height="30" viewBox="0 0 30 30" fill="none" xmlns="http://www.w3.org/2000/svg">
<path d="M22.1 21.116L17.4625 16.4785C18.1822 15.5482 18.5715 14.4107 18.5715 13.2143C18.5715 11.7821 18.0125 10.4393 17.0018 9.42676C15.9911 8.41426 14.6447 7.85712 13.2143 7.85712C11.784 7.85712 10.4375 8.41605 9.42682 9.42676C8.41432 10.4375 7.85718 11.7821 7.85718 13.2143C7.85718 14.6446 8.41611 15.991 9.42682 17.0018C10.4375 18.0143 11.7822 18.5714 13.2143 18.5714C14.4107 18.5714 15.5465 18.1821 16.4768 17.4643L21.1143 22.1C21.1279 22.1136 21.1441 22.1244 21.1618 22.1317C21.1796 22.1391 21.1987 22.1429 21.2179 22.1429C21.2371 22.1429 21.2562 22.1391 21.2739 22.1317C21.2917 22.1244 21.3079 22.1136 21.3215 22.1L22.1 21.3232C22.1136 21.3096 22.1244 21.2934 22.1318 21.2757C22.1392 21.2579 22.143 21.2389 22.143 21.2196C22.143 21.2004 22.1392 21.1813 22.1318 21.1636C22.1244 21.1458 22.1136 21.1296 22.1 21.116V21.116ZM16.0429 16.0428C15.2857 16.7982 14.2822 17.2143 13.2143 17.2143C12.1465 17.2143 11.1429 16.7982 10.3857 16.0428C9.63039 15.2857 9.21432 14.2821 9.21432 13.2143C9.21432 12.1464 9.63039 11.141 10.3857 10.3857C11.1429 9.63033 12.1465 9.21426 13.2143 9.21426C14.2822 9.21426 15.2875 9.62855 16.0429 10.3857C16.7982 11.1428 17.2143 12.1464 17.2143 13.2143C17.2143 14.2821 16.7982 15.2875 16.0429 16.0428Z" fill="black" fill-opacity="0.85"/>
</svg>
