<svg width="11" height="12" viewBox="0 0 11 12" fill="none" xmlns="http://www.w3.org/2000/svg">
<path id="Union" d="M6.09338 0.375H5.15588C5.07255 0.375 5.03088 0.416667 5.03088 0.5V5.40625H0.375C0.291667 5.40625 0.25 5.44792 0.25 5.53125V6.46875C0.25 6.55208 0.291667 6.59375 0.375 6.59375H5.03088V11.5C5.03088 11.5833 5.07255 11.625 5.15588 11.625H6.09338C6.17672 11.625 6.21838 11.5833 6.21838 11.5V6.59375H10.875C10.9583 6.59375 11 6.55208 11 6.46875V5.53125C11 5.44792 10.9583 5.40625 10.875 5.40625H6.21838V0.5C6.21838 0.416667 6.17672 0.375 6.09338 0.375Z" fill="white"/>
</svg>
