<svg width="25" height="25" viewBox="0 0 25 25" fill="none" xmlns="http://www.w3.org/2000/svg">
<mask id="mask0_179673_1723" style="mask-type:alpha" maskUnits="userSpaceOnUse" x="0" y="0" width="25" height="25">
<rect x="0.138184" y="0.6875" width="24" height="24" fill="#D9D9D9"/>
</mask>
<g mask="url(#mask0_179673_1723)">
<path d="M7.37356 22.0433C6.90456 22.0433 6.50561 21.8791 6.17671 21.5508C5.84781 21.2224 5.68336 20.8237 5.68336 20.3547C5.68336 19.8857 5.84754 19.4867 6.17589 19.1578C6.50425 18.8289 6.90295 18.6645 7.37196 18.6645C7.84096 18.6645 8.23991 18.8287 8.56881 19.157C8.89771 19.4854 9.06216 19.8841 9.06216 20.3531C9.06216 20.8221 8.89799 21.2211 8.56964 21.55C8.24127 21.8789 7.84258 22.0433 7.37356 22.0433ZM16.8841 22.0433C16.4151 22.0433 16.0162 21.8791 15.6873 21.5508C15.3584 21.2224 15.1939 20.8237 15.1939 20.3547C15.1939 19.8857 15.3581 19.4867 15.6865 19.1578C16.0148 18.8289 16.4135 18.6645 16.8825 18.6645C17.3515 18.6645 17.7505 18.8287 18.0794 19.157C18.4083 19.4854 18.5727 19.8841 18.5727 20.3531C18.5727 20.8221 18.4086 21.2211 18.0802 21.55C17.7518 21.8789 17.3531 22.0433 16.8841 22.0433ZM6.19389 6.45775L8.72851 11.7655H15.4449C15.5026 11.7655 15.5538 11.751 15.5987 11.7222C15.6436 11.6933 15.6821 11.6533 15.7141 11.602L18.3968 6.727C18.4353 6.65648 18.4385 6.59397 18.4064 6.53947C18.3744 6.48499 18.3199 6.45775 18.2429 6.45775H6.19389ZM5.51769 5.05875H19.1294C19.5352 5.05875 19.8395 5.22887 20.0424 5.56912C20.2453 5.90939 20.2535 6.25529 20.0669 6.60682L16.9439 12.2693C16.7932 12.5494 16.5841 12.7686 16.3164 12.927C16.0486 13.0853 15.761 13.1645 15.4535 13.1645H8.27851L7.10064 15.3202C7.04935 15.3972 7.04775 15.4805 7.09581 15.5702C7.1439 15.66 7.21602 15.7049 7.31219 15.7049H18.5727V17.1039H7.37644C6.72515 17.1039 6.23625 16.8283 5.90971 16.2771C5.58316 15.7259 5.5715 15.1736 5.87471 14.6202L7.30164 12.0795L3.70591 4.49812H1.84009V3.09912H4.58526L5.51769 5.05875Z" fill="#1C1B1F"/>
</g>
</svg>
