<svg width="24" height="25" viewBox="0 0 24 25" fill="none" xmlns="http://www.w3.org/2000/svg">
<g id="Frame">
<path id="Vector" d="M14.2 3.625C12.9734 3.625 11.797 4.11228 10.9296 4.97963C10.0623 5.84699 9.575 7.02337 9.575 8.25V10.825H7.1C6.976 10.825 6.875 10.925 6.875 11.05V14.45C6.875 14.574 6.975 14.675 7.1 14.675H9.575V21.65C9.575 21.774 9.675 21.875 9.8 21.875H13.2C13.324 21.875 13.425 21.775 13.425 21.65V14.675H15.922C16.025 14.675 16.115 14.605 16.14 14.505L16.99 11.105C16.9984 11.0718 16.9991 11.0372 16.992 11.0037C16.985 10.9702 16.9704 10.9388 16.9494 10.9118C16.9283 10.8848 16.9014 10.8629 16.8707 10.8479C16.84 10.8329 16.8062 10.825 16.772 10.825H13.425V8.25C13.425 8.14823 13.445 8.04745 13.484 7.95342C13.5229 7.85939 13.58 7.77396 13.652 7.70199C13.724 7.63003 13.8094 7.57294 13.9034 7.53399C13.9974 7.49505 14.0982 7.475 14.2 7.475H16.8C16.924 7.475 17.025 7.375 17.025 7.25V3.85C17.025 3.726 16.925 3.625 16.8 3.625H14.2Z" fill="black" fill-opacity="0.8"/>
</g>
</svg>
