<svg width="127" height="32" viewBox="0 0 127 32" fill="none" xmlns="http://www.w3.org/2000/svg">
<mask id="path-1-inside-1_179495_1002" fill="white">
<path fill-rule="evenodd" clip-rule="evenodd" d="M38.8757 0.482666L47.8281 9.43505L56.7805 0.482666H38.8757Z"/>
</mask>
<path fill-rule="evenodd" clip-rule="evenodd" d="M38.8757 0.482666L47.8281 9.43505L56.7805 0.482666H38.8757Z" fill="#D3F49C"/>
<path d="M47.8281 9.43505L40.757 16.5061L47.8281 23.5772L54.8992 16.5061L47.8281 9.43505ZM38.8757 0.482666V-9.51733H14.7336L31.8047 7.55373L38.8757 0.482666ZM56.7805 0.482666L63.8516 7.55373L80.9226 -9.51733H56.7805V0.482666ZM54.8992 2.36398L45.9468 -6.5884L31.8047 7.55373L40.757 16.5061L54.8992 2.36398ZM49.7094 -6.5884L40.757 2.36398L54.8992 16.5061L63.8516 7.55373L49.7094 -6.5884ZM56.7805 -9.51733H38.8757V10.4827H56.7805V-9.51733Z" fill="#D3F49C" mask="url(#path-1-inside-1_179495_1002)"/>
<path fill-rule="evenodd" clip-rule="evenodd" d="M37.093 0.482666L47.828 11.2177L58.563 0.48269L60.6426 0.482696L54.8991 6.22623L50.6427 10.4827L47.828 13.2973L45.0134 10.4827L42.0845 7.55376L40.757 6.22623L35.0135 0.482725L35.0134 0.482696L35.0135 0.482666H37.093Z" fill="black"/>
<rect x="47.0457" y="11.6238" width="1.48546" height="15.3002" fill="black"/>
<rect x="38.4299" y="26.9238" width="18.7168" height="1.48546" fill="black"/>
<path d="M7.76579 28.7065H1.0845L1.12323 27.2734H7.76579C9.79278 27.2734 11.5745 26.8022 13.1108 25.8597C14.6601 24.9172 15.8737 23.6132 16.7516 21.9478C17.6296 20.2694 18.0685 18.3392 18.0685 16.1573V13.0006C18.0685 11.3739 17.8168 9.8827 17.3133 8.52707C16.8097 7.17145 16.0997 6.00303 15.183 5.02182C14.2792 4.0406 13.2012 3.28533 11.9489 2.75599C10.6965 2.21374 9.32799 1.94261 7.84326 1.94261H0.968303V0.509521H7.84326C9.53456 0.509521 11.0968 0.812923 12.5298 1.41973C13.9758 2.01362 15.2282 2.86573 16.2869 3.97605C17.3455 5.07346 18.1654 6.39681 18.7464 7.94609C19.3402 9.48247 19.6372 11.1867 19.6372 13.0587V16.1573C19.6372 18.0294 19.3402 19.74 18.7464 21.2893C18.1654 22.8257 17.3391 24.149 16.2675 25.2594C15.2088 26.3568 13.9565 27.2089 12.5105 27.8157C11.0774 28.4096 9.49583 28.7065 7.76579 28.7065ZM1.56865 0.509521V28.7065H0V0.509521H1.56865Z" fill="black"/>
<path d="M28.2357 0.509521V28.7065H26.6671V0.509521H28.2357Z" fill="black"/>
<path d="M70.3703 9.38224H71.0695C70.9831 10.2626 70.7472 11.0049 70.3617 11.6091C69.9762 12.2076 69.4583 12.6621 68.808 12.9729C68.1636 13.2778 67.404 13.4303 66.5294 13.4303C65.8331 13.4303 65.2002 13.298 64.6305 13.0333C64.0666 12.7628 63.5803 12.3831 63.1718 11.894C62.769 11.3991 62.4583 10.8093 62.2396 10.1245C62.021 9.43979 61.9116 8.68311 61.9116 7.8545V6.09371C61.9116 5.25935 62.021 4.50267 62.2396 3.82367C62.4583 3.13892 62.769 2.55199 63.1718 2.06289C63.5803 1.56802 64.0695 1.18824 64.6391 0.923551C65.2145 0.653103 65.8561 0.517879 66.5639 0.517879C67.4213 0.517879 68.1722 0.670366 68.8167 0.975339C69.4611 1.28031 69.9762 1.7349 70.3617 2.33909C70.7472 2.93753 70.9831 3.67694 71.0695 4.55734H70.3703C70.284 3.82655 70.0855 3.21085 69.7748 2.71023C69.4698 2.20386 69.0497 1.81833 68.5146 1.55364C67.9794 1.28894 67.3292 1.1566 66.5639 1.1566C65.9597 1.1566 65.4159 1.27456 64.9326 1.51048C64.4492 1.74065 64.0349 2.07439 63.6897 2.51171C63.3444 2.94328 63.0768 3.46116 62.887 4.06535C62.7028 4.66379 62.6108 5.33416 62.6108 6.07645V7.8545C62.6108 8.58529 62.7028 9.25565 62.887 9.8656C63.0711 10.4698 63.3329 10.9905 63.6724 11.4279C64.0119 11.8594 64.4233 12.1961 64.9067 12.4377C65.39 12.6737 65.9309 12.7916 66.5294 12.7916C67.2947 12.7916 67.9478 12.6708 68.4887 12.4291C69.0296 12.1817 69.4554 11.8048 69.7661 11.2984C70.0826 10.792 70.284 10.1533 70.3703 9.38224Z" fill="black"/>
<path d="M72.9511 8.75216V8.42417C72.9511 7.73942 73.0489 7.11221 73.2445 6.54254C73.4459 5.97287 73.7279 5.48089 74.0904 5.06658C74.4529 4.64653 74.8845 4.32141 75.3851 4.09125C75.8915 3.86108 76.4525 3.74599 77.0682 3.74599C77.6839 3.74599 78.245 3.86108 78.7513 4.09125C79.2577 4.32141 79.6921 4.64653 80.0547 5.06658C80.4229 5.48089 80.7049 5.97287 80.9005 6.54254C81.0962 7.11221 81.194 7.73942 81.194 8.42417V8.75216C81.194 9.43691 81.0962 10.0641 80.9005 10.6338C80.7049 11.2035 80.4258 11.6983 80.0633 12.1184C79.7008 12.5327 79.2663 12.8549 78.76 13.0851C78.2593 13.3152 77.7012 13.4303 77.0855 13.4303C76.464 13.4303 75.9001 13.3152 75.3937 13.0851C74.8931 12.8549 74.4587 12.5327 74.0904 12.1184C73.7279 11.6983 73.4459 11.2035 73.2445 10.6338C73.0489 10.0641 72.9511 9.43691 72.9511 8.75216ZM73.6416 8.42417V8.75216C73.6416 9.29305 73.7164 9.80806 73.866 10.2972C74.0214 10.7805 74.2458 11.2121 74.5392 11.5919C74.8327 11.9659 75.1923 12.2622 75.6182 12.4809C76.044 12.6938 76.5331 12.8002 77.0855 12.8002C77.6264 12.8002 78.1097 12.6938 78.5355 12.4809C78.9614 12.2622 79.3181 11.9659 79.6058 11.5919C79.8993 11.2121 80.1208 10.7805 80.2704 10.2972C80.4258 9.80806 80.5035 9.29305 80.5035 8.75216V8.42417C80.5035 7.89478 80.4258 7.38841 80.2704 6.90506C80.1208 6.4217 79.8993 5.99014 79.6058 5.61036C79.3124 5.23058 78.9527 4.93136 78.5269 4.7127C78.1011 4.48829 77.6149 4.37608 77.0682 4.37608C76.5216 4.37608 76.0353 4.48829 75.6095 4.7127C75.1895 4.93136 74.8298 5.23058 74.5306 5.61036C74.2371 5.99014 74.0156 6.4217 73.866 6.90506C73.7164 7.38841 73.6416 7.89478 73.6416 8.42417Z" fill="black"/>
<path d="M86.6921 12.8002C87.1582 12.8002 87.5984 12.7139 88.0127 12.5413C88.4328 12.3687 88.7809 12.1069 89.0571 11.7559C89.3391 11.3991 89.4973 10.9474 89.5318 10.4007H90.2051C90.1763 11.0222 89.9979 11.5602 89.6699 12.0148C89.342 12.4636 88.919 12.8118 88.4011 13.0592C87.8833 13.3066 87.3136 13.4303 86.6921 13.4303C86.0707 13.4303 85.5154 13.3152 85.0263 13.0851C84.5429 12.8549 84.1373 12.5298 83.8093 12.1097C83.4813 11.6897 83.231 11.1977 83.0584 10.6338C82.8915 10.0641 82.808 9.44266 82.808 8.76942V8.40691C82.808 7.73366 82.8915 7.11508 83.0584 6.55117C83.231 5.9815 83.4813 5.48664 83.8093 5.06658C84.1373 4.64653 84.5401 4.32141 85.0177 4.09125C85.501 3.86108 86.0534 3.74599 86.6749 3.74599C87.3021 3.74599 87.8775 3.87546 88.4011 4.1344C88.9248 4.38759 89.3477 4.75873 89.6699 5.24784C89.9979 5.7312 90.1763 6.32388 90.2051 7.02589H89.5318C89.5031 6.45047 89.3563 5.96712 89.0916 5.57583C88.827 5.18455 88.4817 4.8882 88.0559 4.68681C87.6301 4.47965 87.1697 4.37608 86.6749 4.37608C86.1225 4.37608 85.6449 4.48253 85.2421 4.69544C84.8393 4.90834 84.5084 5.20181 84.2495 5.57583C83.9905 5.9441 83.8006 6.37279 83.6798 6.8619C83.559 7.34525 83.4986 7.86025 83.4986 8.40691V8.76942C83.4986 9.32183 83.559 9.84258 83.6798 10.3317C83.8006 10.815 83.9905 11.2409 84.2495 11.6091C84.5084 11.9774 84.8393 12.268 85.2421 12.4809C85.6506 12.6938 86.134 12.8002 86.6921 12.8002Z" fill="black"/>
<path d="M93.1311 0V13.2577H92.4406V0H93.1311ZM99.0781 3.91862L94.538 8.23428L92.9326 9.69297L92.7686 9.08878L94.1755 7.68187L98.1632 3.91862H99.0781ZM98.5257 13.2577L94.2791 8.16523L94.6847 7.59556L99.3715 13.2577H98.5257Z" fill="black"/>
<path d="M104.231 3.91862V4.54007H99.76V3.91862H104.231ZM101.486 1.45006H102.177V11.0049C102.177 11.5055 102.237 11.8853 102.358 12.1443C102.485 12.3975 102.649 12.5701 102.85 12.6621C103.057 12.7485 103.279 12.7916 103.515 12.7916C103.681 12.7916 103.834 12.783 103.972 12.7657C104.116 12.7485 104.26 12.7283 104.404 12.7053L104.464 13.3095C104.337 13.3498 104.173 13.3785 103.972 13.3958C103.771 13.4188 103.592 13.4303 103.437 13.4303C103.046 13.4303 102.703 13.3584 102.41 13.2146C102.116 13.0707 101.889 12.8233 101.728 12.4723C101.567 12.1155 101.486 11.6264 101.486 11.0049V1.45006Z" fill="black"/>
<path d="M112.336 11.5401V6.71517C112.336 6.22606 112.232 5.806 112.025 5.45499C111.818 5.10399 111.516 4.83642 111.119 4.65228C110.722 4.46239 110.236 4.36745 109.66 4.36745C109.125 4.36745 108.644 4.46239 108.219 4.65228C107.799 4.83642 107.468 5.0896 107.226 5.41184C106.984 5.73407 106.864 6.09371 106.864 6.49075L106.173 6.48212C106.173 6.12536 106.256 5.78298 106.423 5.45499C106.596 5.127 106.838 4.83642 107.148 4.58323C107.465 4.32429 107.836 4.12002 108.262 3.97041C108.693 3.8208 109.165 3.74599 109.677 3.74599C110.333 3.74599 110.912 3.8582 111.412 4.08261C111.919 4.30127 112.313 4.63214 112.595 5.07522C112.877 5.51829 113.018 6.07069 113.018 6.73243V11.3416C113.018 11.6753 113.041 12.0119 113.087 12.3514C113.133 12.6909 113.196 12.9642 113.277 13.1714V13.2577H112.526C112.462 13.039 112.413 12.7715 112.379 12.455C112.35 12.1385 112.336 11.8335 112.336 11.5401ZM112.56 7.95808L112.577 8.55364H110.299C109.723 8.55364 109.208 8.6083 108.754 8.71763C108.299 8.82696 107.914 8.98233 107.597 9.18372C107.281 9.38512 107.039 9.62392 106.872 9.90012C106.705 10.1763 106.622 10.4871 106.622 10.8323C106.622 11.1891 106.717 11.5171 106.907 11.8163C107.097 12.1155 107.364 12.3543 107.709 12.5327C108.055 12.7053 108.455 12.7916 108.909 12.7916C109.531 12.7916 110.08 12.6852 110.558 12.4723C111.041 12.2536 111.447 11.9601 111.775 11.5919C112.103 11.2178 112.342 10.7863 112.491 10.2972L112.793 10.7978C112.695 11.1028 112.543 11.4106 112.336 11.7213C112.129 12.0321 111.861 12.3169 111.533 12.5758C111.205 12.829 110.82 13.0362 110.376 13.1973C109.933 13.3527 109.43 13.4303 108.866 13.4303C108.273 13.4303 107.755 13.321 107.312 13.1023C106.875 12.8779 106.536 12.573 106.294 12.1874C106.052 11.7961 105.931 11.3502 105.931 10.8496C105.931 10.418 106.029 10.0238 106.225 9.66708C106.42 9.31032 106.702 9.00534 107.071 8.75216C107.445 8.49322 107.896 8.29757 108.426 8.16523C108.961 8.02713 109.562 7.95808 110.23 7.95808H112.56Z" fill="black"/>
<path d="M116.738 3.91862V13.2577H116.047V3.91862H116.738ZM115.831 1.08755C115.831 0.932182 115.883 0.799836 115.987 0.690506C116.096 0.575421 116.234 0.517879 116.401 0.517879C116.562 0.517879 116.697 0.575421 116.807 0.690506C116.916 0.799836 116.971 0.932182 116.971 1.08755C116.971 1.24291 116.916 1.37526 116.807 1.48459C116.697 1.58816 116.562 1.63995 116.401 1.63995C116.234 1.63995 116.096 1.58816 115.987 1.48459C115.883 1.37526 115.831 1.24291 115.831 1.08755Z" fill="black"/>
<path d="M120.518 0V13.2577H119.828V0H120.518Z" fill="black"/>
<path d="M62.3518 15.8422H66.3826C67.2113 15.8422 67.9392 15.9831 68.5664 16.2651C69.1936 16.5471 69.6827 16.9585 70.0337 17.4994C70.3905 18.0403 70.5688 18.7049 70.5688 19.4932C70.5688 20.0974 70.4394 20.6441 70.1804 21.1332C69.9215 21.6223 69.5705 22.0279 69.1274 22.3502C68.6843 22.6667 68.1837 22.8738 67.6256 22.9716L67.3235 23.0838H62.6884L62.6712 22.4451H66.7365C67.4328 22.4451 68.0111 22.3042 68.4714 22.0222C68.9375 21.7402 69.2856 21.3748 69.5158 20.926C69.7517 20.4714 69.8697 19.9938 69.8697 19.4932C69.8697 18.866 69.7287 18.3309 69.4468 17.8878C69.1706 17.439 68.7706 17.0937 68.247 16.852C67.7291 16.6046 67.1077 16.4809 66.3826 16.4809H63.051V28.4094H62.3518V15.8422ZM70.3531 28.4094L66.9868 22.8335L67.7637 22.8249L71.0953 28.2885V28.4094H70.3531Z" fill="black"/>
<path d="M77.051 28.582C76.464 28.582 75.9203 28.4698 75.4196 28.2454C74.919 28.0152 74.4817 27.6958 74.1077 27.2873C73.7337 26.873 73.4402 26.3839 73.2273 25.82C73.0201 25.2561 72.9166 24.6375 72.9166 23.9642V23.5845C72.9166 22.8882 73.0201 22.2552 73.2273 21.6856C73.4402 21.1102 73.7279 20.6153 74.0904 20.201C74.4529 19.7809 74.8701 19.4587 75.342 19.2343C75.8196 19.0099 76.3288 18.8977 76.8697 18.8977C77.4163 18.8977 77.9112 18.9984 78.3543 19.1998C78.7974 19.4011 79.1771 19.6831 79.4936 20.0456C79.8101 20.4081 80.0518 20.8397 80.2186 21.3403C80.3855 21.8409 80.469 22.3933 80.469 22.9975V23.5758H73.3481V22.9457H79.7871V22.8335C79.7813 22.2466 79.6605 21.7028 79.4246 21.2022C79.1944 20.7016 78.8635 20.2988 78.432 19.9938C78.0004 19.6831 77.4796 19.5277 76.8697 19.5277C76.3806 19.5277 75.9346 19.6313 75.5318 19.8385C75.1348 20.0456 74.7924 20.3333 74.5047 20.7016C74.217 21.0641 73.9955 21.4928 73.8401 21.9877C73.6847 22.4768 73.6071 23.009 73.6071 23.5845V23.9642C73.6071 24.5166 73.6934 25.0345 73.866 25.5179C74.0386 26.0012 74.2803 26.427 74.591 26.7953C74.9018 27.1578 75.2671 27.4427 75.6872 27.6498C76.1073 27.857 76.5676 27.9605 77.0682 27.9605C77.6091 27.9605 78.104 27.8656 78.5528 27.6757C79.0016 27.4858 79.4102 27.1521 79.7785 26.6745L80.2273 27.0111C80.0201 27.3103 79.7698 27.5779 79.4764 27.8138C79.1829 28.0497 78.8348 28.2367 78.432 28.3748C78.0349 28.5129 77.5746 28.582 77.051 28.582Z" fill="black"/>
<path d="M85.8808 27.9519C86.3469 27.9519 86.7871 27.8656 87.2014 27.693C87.6214 27.5203 87.9696 27.2585 88.2458 26.9075C88.5277 26.5508 88.686 26.0991 88.7205 25.5524H89.3937C89.365 26.1739 89.1866 26.7119 88.8586 27.1665C88.5306 27.6153 88.1077 27.9634 87.5898 28.2108C87.0719 28.4583 86.5022 28.582 85.8808 28.582C85.2593 28.582 84.7041 28.4669 84.215 28.2367C83.7316 28.0066 83.3259 27.6815 82.9979 27.2614C82.6699 26.8413 82.4196 26.3494 82.247 25.7854C82.0801 25.2158 81.9967 24.5943 81.9967 23.9211V23.5586C81.9967 22.8853 82.0801 22.2667 82.247 21.7028C82.4196 21.1332 82.6699 20.6383 82.9979 20.2182C83.3259 19.7982 83.7287 19.4731 84.2063 19.2429C84.6897 19.0127 85.2421 18.8977 85.8635 18.8977C86.4907 18.8977 87.0662 19.0271 87.5898 19.2861C88.1134 19.5393 88.5364 19.9104 88.8586 20.3995C89.1866 20.8829 89.365 21.4755 89.3937 22.1776H88.7205C88.6917 21.6021 88.545 21.1188 88.2803 20.7275C88.0156 20.3362 87.6704 20.0399 87.2445 19.8385C86.8187 19.6313 86.3584 19.5277 85.8635 19.5277C85.3111 19.5277 84.8335 19.6342 84.4307 19.8471C84.0279 20.06 83.6971 20.3535 83.4381 20.7275C83.1792 21.0958 82.9893 21.5245 82.8685 22.0136C82.7476 22.4969 82.6872 23.0119 82.6872 23.5586V23.9211C82.6872 24.4735 82.7476 24.9942 82.8685 25.4834C82.9893 25.9667 83.1792 26.3925 83.4381 26.7608C83.6971 27.1291 84.0279 27.4196 84.4307 27.6326C84.8393 27.8455 85.3226 27.9519 85.8808 27.9519Z" fill="black"/>
<path d="M95.0904 28.582C94.5035 28.582 93.9597 28.4698 93.4591 28.2454C92.9585 28.0152 92.5212 27.6958 92.1471 27.2873C91.7731 26.873 91.4796 26.3839 91.2667 25.82C91.0596 25.2561 90.956 24.6375 90.956 23.9642V23.5845C90.956 22.8882 91.0596 22.2552 91.2667 21.6856C91.4796 21.1102 91.7674 20.6153 92.1299 20.201C92.4924 19.7809 92.9096 19.4587 93.3814 19.2343C93.859 19.0099 94.3683 18.8977 94.9092 18.8977C95.4558 18.8977 95.9507 18.9984 96.3937 19.1998C96.8368 19.4011 97.2166 19.6831 97.5331 20.0456C97.8496 20.4081 98.0912 20.8397 98.2581 21.3403C98.425 21.8409 98.5084 22.3933 98.5084 22.9975V23.5758H91.3876V22.9457H97.8265V22.8335C97.8208 22.2466 97.6999 21.7028 97.464 21.2022C97.2339 20.7016 96.903 20.2988 96.4714 19.9938C96.0399 19.6831 95.5191 19.5277 94.9092 19.5277C94.42 19.5277 93.9741 19.6313 93.5713 19.8385C93.1743 20.0456 92.8319 20.3333 92.5442 20.7016C92.2565 21.0641 92.0349 21.4928 91.8796 21.9877C91.7242 22.4768 91.6465 23.009 91.6465 23.5845V23.9642C91.6465 24.5166 91.7328 25.0345 91.9055 25.5179C92.0781 26.0012 92.3198 26.427 92.6305 26.7953C92.9412 27.1578 93.3066 27.4427 93.7267 27.6498C94.1467 27.857 94.6071 27.9605 95.1077 27.9605C95.6486 27.9605 96.1434 27.8656 96.5923 27.6757C97.0411 27.4858 97.4496 27.1521 97.8179 26.6745L98.2667 27.0111C98.0596 27.3103 97.8093 27.5779 97.5158 27.8138C97.2223 28.0497 96.8742 28.2367 96.4714 28.3748C96.0744 28.5129 95.614 28.582 95.0904 28.582Z" fill="black"/>
<path d="M101.443 19.0703V28.4094H100.753V19.0703H101.443ZM100.537 16.2392C100.537 16.0838 100.589 15.9515 100.692 15.8422C100.801 15.7271 100.94 15.6695 101.106 15.6695C101.268 15.6695 101.403 15.7271 101.512 15.8422C101.621 15.9515 101.676 16.0838 101.676 16.2392C101.676 16.3946 101.621 16.5269 101.512 16.6363C101.403 16.7398 101.268 16.7916 101.106 16.7916C100.94 16.7916 100.801 16.7398 100.692 16.6363C100.589 16.5269 100.537 16.3946 100.537 16.2392Z" fill="black"/>
<path d="M105.094 20.8656V32H104.404V19.0703H105.068L105.094 20.8656ZM111.706 23.6449V23.8261C111.706 24.5339 111.625 25.1784 111.464 25.7596C111.309 26.3407 111.078 26.8413 110.774 27.2614C110.474 27.6815 110.106 28.0066 109.669 28.2367C109.231 28.4669 108.734 28.582 108.175 28.582C107.64 28.582 107.16 28.5043 106.734 28.349C106.308 28.1878 105.94 27.9634 105.629 27.6757C105.319 27.388 105.068 27.06 104.878 26.6917C104.688 26.3177 104.556 25.9178 104.481 25.492V22.2466C104.579 21.7575 104.726 21.3115 104.921 20.9088C105.123 20.5002 105.373 20.1463 105.672 19.8471C105.977 19.5421 106.337 19.3091 106.751 19.148C107.166 18.9811 107.635 18.8977 108.158 18.8977C108.716 18.8977 109.214 19.0099 109.651 19.2343C110.095 19.4529 110.469 19.7694 110.774 20.1837C111.078 20.5923 111.309 21.09 111.464 21.6769C111.625 22.2581 111.706 22.9141 111.706 23.6449ZM111.007 23.8261V23.6449C111.007 23.058 110.946 22.5142 110.825 22.0136C110.71 21.5129 110.532 21.0785 110.29 20.7102C110.048 20.342 109.744 20.0543 109.375 19.8471C109.007 19.6399 108.573 19.5364 108.072 19.5364C107.525 19.5364 107.062 19.6284 106.682 19.8126C106.302 19.991 105.989 20.224 105.741 20.5117C105.5 20.7994 105.313 21.1102 105.18 21.4439C105.048 21.7719 104.95 22.0826 104.887 22.3761V25.4402C104.991 25.9005 105.175 26.3206 105.439 26.7004C105.704 27.0801 106.055 27.3851 106.492 27.6153C106.935 27.8397 107.468 27.9519 108.089 27.9519C108.59 27.9519 109.021 27.8483 109.384 27.6412C109.746 27.434 110.048 27.1463 110.29 26.7781C110.532 26.4098 110.71 25.9753 110.825 25.4747C110.946 24.9684 111.007 24.4188 111.007 23.8261Z" fill="black"/>
<path d="M117.471 19.0703V19.6917H113V19.0703H117.471ZM114.727 16.6017H115.417V26.1566C115.417 26.6572 115.478 27.037 115.598 27.2959C115.725 27.5491 115.889 27.7217 116.09 27.8138C116.298 27.9001 116.519 27.9433 116.755 27.9433C116.922 27.9433 117.074 27.9346 117.212 27.9174C117.356 27.9001 117.5 27.88 117.644 27.857L117.704 28.4612C117.578 28.5014 117.414 28.5302 117.212 28.5475C117.011 28.5705 116.833 28.582 116.677 28.582C116.286 28.582 115.944 28.5101 115.65 28.3662C115.357 28.2224 115.129 27.9749 114.968 27.6239C114.807 27.2672 114.727 26.7781 114.727 26.1566V16.6017Z" fill="black"/>
<path d="M125.481 26.0875C125.481 25.8113 125.406 25.538 125.257 25.2676C125.113 24.9971 124.845 24.7439 124.454 24.508C124.069 24.2721 123.508 24.0736 122.771 23.9125C122.247 23.7974 121.784 23.6708 121.381 23.5327C120.984 23.3946 120.651 23.2277 120.38 23.0321C120.11 22.8307 119.905 22.5919 119.767 22.3157C119.635 22.0395 119.569 21.7086 119.569 21.3231C119.569 20.9893 119.641 20.6757 119.785 20.3822C119.928 20.0888 120.139 19.8327 120.415 19.6141C120.697 19.3896 121.033 19.2141 121.425 19.0875C121.816 18.961 122.259 18.8977 122.754 18.8977C123.462 18.8977 124.066 19.0156 124.566 19.2515C125.073 19.4817 125.461 19.8011 125.732 20.2096C126.002 20.6124 126.137 21.0814 126.137 21.6165H125.447C125.447 21.254 125.343 20.9145 125.136 20.598C124.929 20.2815 124.624 20.0255 124.221 19.8298C123.824 19.6284 123.335 19.5277 122.754 19.5277C122.167 19.5277 121.689 19.6169 121.321 19.7953C120.953 19.9737 120.682 20.201 120.51 20.4772C120.343 20.7476 120.259 21.0238 120.259 21.3058C120.259 21.5302 120.291 21.7402 120.354 21.9359C120.423 22.1258 120.553 22.3013 120.743 22.4624C120.933 22.6235 121.206 22.7789 121.563 22.9285C121.919 23.0723 122.383 23.2076 122.952 23.3342C123.7 23.501 124.31 23.7053 124.782 23.947C125.254 24.1829 125.602 24.4735 125.827 24.8187C126.051 25.1582 126.163 25.5754 126.163 26.0703C126.163 26.4386 126.085 26.7781 125.93 27.0888C125.775 27.3938 125.55 27.6584 125.257 27.8829C124.969 28.1073 124.618 28.2799 124.204 28.4007C123.79 28.5216 123.329 28.582 122.823 28.582C122.058 28.582 121.407 28.4612 120.872 28.2195C120.343 27.972 119.94 27.6469 119.664 27.2441C119.393 26.8413 119.258 26.4069 119.258 25.9408H119.949C119.989 26.4529 120.156 26.8557 120.449 27.1492C120.748 27.4427 121.111 27.6498 121.537 27.7707C121.968 27.8915 122.397 27.9519 122.823 27.9519C123.404 27.9519 123.89 27.8627 124.282 27.6843C124.679 27.5002 124.978 27.2672 125.179 26.9852C125.381 26.6975 125.481 26.3983 125.481 26.0875Z" fill="black"/>
</svg>
